<svg width="423" height="47" viewBox="0 0 423 47" fill="none" xmlns="http://www.w3.org/2000/svg">
<mask id="path-1-inside-1_1095_31804" fill="white">
<path d="M0 4C0 1.79086 1.79086 0 4 0H94V47H4C1.79086 47 0 45.2091 0 43V4Z"/>
</mask>
<path d="M0 4C0 1.79086 1.79086 0 4 0H94V47H4C1.79086 47 0 45.2091 0 43V4Z" fill="white"/>
<path d="M-1 4C-1 1.23858 1.23858 -1 4 -1H94V1H4C2.34315 1 1 2.34315 1 4H-1ZM94 48H4C1.23858 48 -1 45.7614 -1 43H1C1 44.6569 2.34315 46 4 46H94V48ZM4 48C1.23858 48 -1 45.7614 -1 43V4C-1 1.23858 1.23858 -1 4 -1V1C2.34315 1 1 2.34315 1 4V43C1 44.6569 2.34315 46 4 46V48ZM94 0V47V0Z" fill="#CCCCCC" mask="url(#path-1-inside-1_1095_31804)"/>
<path fill-rule="evenodd" clip-rule="evenodd" d="M30.0157 18.9502C30.1719 19.1064 30.1719 19.3596 30.0157 19.5159L26.2985 23.233L30.0157 26.9502C30.1719 27.1064 30.1719 27.3596 30.0157 27.5159C29.8594 27.6721 29.6062 27.6721 29.45 27.5159L25.45 23.5158C25.2938 23.3596 25.2938 23.1064 25.45 22.9502L29.45 18.9502C29.6062 18.794 29.8594 18.794 30.0157 18.9502Z" fill="#848688"/>
<path d="M49.9911 17.478H51.1391V30.064H49.9911V17.478ZM44.5171 18.444C46.3791 18.444 47.7091 20.152 47.7091 22.826C47.7091 25.5 46.3791 27.208 44.5171 27.208C42.6551 27.208 41.3251 25.5 41.3251 22.826C41.3251 20.152 42.6551 18.444 44.5171 18.444ZM44.5171 19.48C43.2851 19.48 42.4171 20.796 42.4171 22.826C42.4171 24.87 43.2851 26.186 44.5171 26.186C45.7351 26.186 46.6031 24.87 46.6031 22.826C46.6031 20.796 45.7351 19.48 44.5171 19.48ZM60.406 20.95H62.926V17.492H64.088V26.69H62.926V21.888H60.406V20.95ZM61.148 23.904L60.574 24.8C59.174 24.296 58.096 23.246 57.55 21.958C57.004 23.386 55.856 24.548 54.386 25.08L53.784 24.184C55.646 23.512 56.948 21.846 56.948 20.068V19.438H54.148V18.5H60.854V19.438H58.096V20.054C58.096 21.692 59.328 23.26 61.148 23.904ZM57.214 28.818H64.438V29.756H56.052V25.878H57.214V28.818Z" fill="#848688"/>
<rect x="94.5" y="0.5" width="46" height="46" fill="white"/>
<rect x="94.5" y="0.5" width="46" height="46" stroke="#0F1111"/>
<path d="M117.542 29V20.684L114.84 21.734V20.614L117.64 19.298H118.942V29H117.542Z" fill="#0F1111"/>
<mask id="path-7-inside-2_1095_31804" fill="white">
<path d="M141 0H188V47H141V0Z"/>
</mask>
<path d="M141 0H188V47H141V0Z" fill="white"/>
<path d="M141 1H188V-1H141V1ZM188 46H141V48H188V46Z" fill="#CCCCCC" mask="url(#path-7-inside-2_1095_31804)"/>
<path d="M161.336 29V27.908C162.68 26.5453 163.66 25.5047 164.276 24.786C164.902 24.058 165.331 23.4747 165.564 23.036C165.798 22.5973 165.914 22.182 165.914 21.79C165.914 21.3233 165.77 20.9593 165.48 20.698C165.2 20.4273 164.818 20.292 164.332 20.292C163.502 20.292 162.592 20.642 161.602 21.342V20.152C162.06 19.788 162.522 19.522 162.988 19.354C163.464 19.1767 163.982 19.088 164.542 19.088C165.392 19.088 166.073 19.326 166.586 19.802C167.109 20.278 167.37 20.908 167.37 21.692C167.37 22.2147 167.23 22.7467 166.95 23.288C166.67 23.82 166.213 24.4407 165.578 25.15C164.953 25.8593 164.076 26.7553 162.946 27.838H167.818V29H161.336Z" fill="#848688"/>
<mask id="path-10-inside-3_1095_31804" fill="white">
<path d="M188 0H235V47H188V0Z"/>
</mask>
<path d="M188 0H235V47H188V0Z" fill="white"/>
<path d="M188 1H235V-1H188V1ZM235 46H188V48H235V46Z" fill="#CCCCCC" mask="url(#path-10-inside-3_1095_31804)"/>
<path d="M211.234 23.456C211.281 23.4467 211.328 23.442 211.374 23.442C211.421 23.442 211.468 23.442 211.514 23.442C212.438 23.442 213.171 23.694 213.712 24.198C214.254 24.6927 214.524 25.36 214.524 26.2C214.524 27.1147 214.193 27.8473 213.53 28.398C212.877 28.9393 211.995 29.21 210.884 29.21C210.007 29.21 209.139 29.0233 208.28 28.65V27.53C209.298 27.866 210.166 28.034 210.884 28.034C211.594 28.034 212.14 27.8753 212.522 27.558C212.905 27.2407 213.096 26.788 213.096 26.2C213.096 25.0707 212.382 24.506 210.954 24.506C210.506 24.506 210.063 24.5293 209.624 24.576V23.652L212.564 20.446H208.42V19.298H214.118V20.404L211.234 23.456Z" fill="#848688"/>
<mask id="path-13-inside-4_1095_31804" fill="white">
<path d="M235 0H282V47H235V0Z"/>
</mask>
<path d="M235 0H282V47H235V0Z" fill="white"/>
<path d="M235 1H282V-1H235V1ZM282 46H235V48H282V46Z" fill="#CCCCCC" mask="url(#path-13-inside-4_1095_31804)"/>
<path d="M255.027 29.14C254.756 29.14 254.537 29.056 254.369 28.888C254.201 28.7107 254.117 28.4867 254.117 28.216C254.117 27.9453 254.201 27.726 254.369 27.558C254.537 27.3807 254.756 27.292 255.027 27.292C255.298 27.292 255.517 27.3807 255.685 27.558C255.853 27.726 255.937 27.9453 255.937 28.216C255.937 28.4867 255.853 28.7107 255.685 28.888C255.517 29.056 255.298 29.14 255.027 29.14ZM258.5 29.14C258.229 29.14 258.01 29.056 257.842 28.888C257.674 28.7107 257.59 28.4867 257.59 28.216C257.59 27.9453 257.674 27.726 257.842 27.558C258.01 27.3807 258.229 27.292 258.5 27.292C258.77 27.292 258.99 27.3807 259.158 27.558C259.326 27.726 259.41 27.9453 259.41 28.216C259.41 28.4867 259.326 28.7107 259.158 28.888C258.99 29.056 258.77 29.14 258.5 29.14ZM261.972 29.14C261.702 29.14 261.482 29.056 261.314 28.888C261.146 28.7107 261.062 28.4867 261.062 28.216C261.062 27.9453 261.146 27.726 261.314 27.558C261.482 27.3807 261.702 27.292 261.972 27.292C262.243 27.292 262.462 27.3807 262.63 27.558C262.798 27.726 262.882 27.9453 262.882 28.216C262.882 28.4867 262.798 28.7107 262.63 28.888C262.462 29.056 262.243 29.14 261.972 29.14Z" fill="#848688"/>
<mask id="path-16-inside-5_1095_31804" fill="white">
<path d="M282 0H329V47H282V0Z"/>
</mask>
<path d="M282 0H329V47H282V0Z" fill="white"/>
<path d="M282 1H329V-1H282V1ZM329 46H282V48H329V46Z" fill="#CCCCCC" mask="url(#path-16-inside-5_1095_31804)"/>
<path d="M303.414 29L307.292 20.446H302.126V19.298H308.706V20.404L304.912 29H303.414Z" fill="#848688"/>
<mask id="path-19-inside-6_1095_31804" fill="white">
<path d="M423 4C423 1.79086 421.209 0 419 0H329V47H419C421.209 47 423 45.2091 423 43V4Z"/>
</mask>
<path d="M423 4C423 1.79086 421.209 0 419 0H329V47H419C421.209 47 423 45.2091 423 43V4Z" fill="white"/>
<path d="M424 4C424 1.23858 421.761 -1 419 -1H329V1H419C420.657 1 422 2.34315 422 4H424ZM329 48H419C421.761 48 424 45.7614 424 43H422C422 44.6569 420.657 46 419 46H329V48ZM419 48C421.761 48 424 45.7614 424 43V4C424 1.23858 421.761 -1 419 -1V1C420.657 1 422 2.34315 422 4V43C422 44.6569 420.657 46 419 46V48ZM329 0V47V0Z" fill="#CCCCCC" mask="url(#path-19-inside-6_1095_31804)"/>
<path fill-rule="evenodd" clip-rule="evenodd" d="M392.984 18.9502C392.828 19.1064 392.828 19.3596 392.984 19.5159L396.702 23.233L392.984 26.9502C392.828 27.1064 392.828 27.3596 392.984 27.5159C393.141 27.6721 393.394 27.6721 393.55 27.5159L397.55 23.5158C397.706 23.3596 397.706 23.1064 397.55 22.9502L393.55 18.9502C393.394 18.794 393.141 18.794 392.984 18.9502Z" fill="#0F1111"/>
<path d="M359.543 19.634V25.948C361.769 25.948 363.379 25.85 365.199 25.528L365.325 26.48C363.407 26.844 361.755 26.928 359.389 26.928H358.395V18.682H364.233V19.634H359.543ZM369.595 22.434V23.386H367.523V30.064H366.375V17.478H367.523V22.434H369.595ZM376.412 17.758C379.128 17.758 380.822 18.64 380.822 20.138C380.822 21.622 379.128 22.504 376.412 22.504C373.696 22.504 372.002 21.622 372.002 20.138C372.002 18.64 373.696 17.758 376.412 17.758ZM376.412 18.668C374.424 18.668 373.178 19.214 373.178 20.138C373.178 21.062 374.424 21.608 376.412 21.608C378.4 21.608 379.646 21.062 379.646 20.138C379.646 19.214 378.4 18.668 376.412 18.668ZM372.142 25.738H380.71V29.868H372.142V25.738ZM379.59 26.648H373.262V28.944H379.59V26.648ZM370.742 23.582H382.096V24.506H370.742V23.582Z" fill="#0F1111"/>
</svg>
