<svg width="63" height="23" viewBox="0 0 63 23" fill="none" xmlns="http://www.w3.org/2000/svg">
<path d="M0 4C0 1.79086 1.79086 0 4 0H63V19C63 21.2091 61.2091 23 59 23H0V4Z" fill="#F21C00"/>
<path d="M8.82756 12.172L8.37156 11.404C9.95556 10.924 11.0476 9.736 11.0716 8.32H8.62356V7.528H11.0716V6.196H12.0556V7.528H14.5396V8.32H12.0556C12.0796 9.688 13.2076 10.828 14.7796 11.296L14.3236 12.052C13.0516 11.668 12.0676 10.852 11.5756 9.784C11.1076 10.912 10.1116 11.764 8.82756 12.172ZM12.0556 11.812V13.768C13.0636 13.708 14.1076 13.636 15.0676 13.48L15.1516 14.212C12.7396 14.656 10.0996 14.668 8.17956 14.68L8.04756 13.852C8.93556 13.852 9.97956 13.852 11.0716 13.816V11.812H12.0556ZM15.7756 6.124H16.7596V16.9H15.7756V6.124ZM20.4666 7.972V13.384C22.3746 13.384 23.7546 13.3 25.3146 13.024L25.4226 13.84C23.7786 14.152 22.3626 14.224 20.3346 14.224H19.4826V7.156H24.4866V7.972H20.4666ZM29.0826 10.372V11.188H27.3066V16.912H26.3226V6.124H27.3066V10.372H29.0826ZM35.5583 7.924V11.596C36.1223 11.584 36.6983 11.572 37.2743 11.536V7.924H35.5583ZM39.7943 11.332L39.8663 12.064C37.7183 12.4 35.2103 12.448 33.3503 12.448L33.2423 11.632C33.6623 11.632 34.1183 11.632 34.5983 11.62V7.924H33.5423V7.132H39.2903V7.924H38.2223V11.476C38.7623 11.44 39.2903 11.392 39.7943 11.332ZM35.8463 13.312V15.844H42.0383V16.648H34.8623V13.312H35.8463ZM41.5583 9.4H43.1423V10.216H41.5583V14.056H40.5743V6.124H41.5583V9.4ZM45.5534 8.152V13.216H47.8094V8.152H45.5534ZM44.6294 13.996V7.372H48.7214V13.996H44.6294ZM52.4534 6.124H53.3894V16.876H52.4534V11.188H51.0014V16.348H50.0774V6.364H51.0014V10.384H52.4534V6.124Z" fill="white"/>
</svg>
