<svg width="24" height="24" viewBox="0 0 24 24" fill="none" xmlns="http://www.w3.org/2000/svg">
<path fill-rule="evenodd" clip-rule="evenodd" d="M5.45509 6L4.5 6C4.22386 6 4 5.77614 4 5.5C4 5.22386 4.22386 5 4.5 5H5.9707C5.97568 5 5.98063 5.00007 5.98557 5.00022C6.28545 4.99215 6.55056 5.2097 6.59473 5.51386L6.59473 5.51387L6.59473 5.51388L6.59474 5.51396L6.59481 5.51444L6.59513 5.51661L6.59644 5.52559L6.60168 5.56097C6.60629 5.59184 6.61303 5.63665 6.62153 5.69183C6.63855 5.80234 6.66247 5.95371 6.69014 6.11759C6.74787 6.45945 6.81463 6.81066 6.86489 6.98048C6.86919 6.995 6.87293 7.00969 6.87612 7.0245L8.26962 13.4991H17.0209L18.4144 7.0245C18.4841 6.70054 18.8032 6.49445 19.1272 6.56417C19.4511 6.6339 19.6572 6.95303 19.5875 7.27699L18.0921 14.2253C18.0326 14.5017 17.7882 14.6991 17.5055 14.6991H8.50095V15.6884C8.75329 15.5677 9.03589 15.5001 9.33429 15.5001C9.55166 15.5001 9.76065 15.536 9.95567 15.6021C9.97058 15.6008 9.98569 15.6001 10.0009 15.6001H15.7189C15.9122 15.5352 16.1191 15.5001 16.3343 15.5001C17.4021 15.5001 18.2676 16.3656 18.2676 17.4334C18.2676 18.5012 17.4021 19.3667 16.3343 19.3667C15.2665 19.3667 14.401 18.5012 14.401 17.4334C14.401 17.135 14.4686 16.8524 14.5893 16.6001H11.0793C11.2 16.8524 11.2676 17.135 11.2676 17.4334C11.2676 18.5012 10.402 19.3667 9.33429 19.3667C8.26654 19.3667 7.40095 18.5012 7.40095 17.4334C7.40095 17.2183 7.4361 17.0113 7.50095 16.818V14.6276C7.35007 14.5465 7.23647 14.4021 7.19844 14.2253L5.70741 7.29757C5.63515 7.04396 5.56062 6.63559 5.50689 6.31739C5.48748 6.20243 5.46989 6.09369 5.45509 6ZM8.60095 17.4334C8.60095 17.0284 8.92927 16.7001 9.33429 16.7001C9.7393 16.7001 10.0676 17.0284 10.0676 17.4334C10.0676 17.8384 9.7393 18.1667 9.33429 18.1667C8.92927 18.1667 8.60095 17.8384 8.60095 17.4334ZM15.601 17.4334C15.601 17.0284 15.9293 16.7001 16.3343 16.7001C16.7393 16.7001 17.0676 17.0284 17.0676 17.4334C17.0676 17.8384 16.7393 18.1667 16.3343 18.1667C15.9293 18.1667 15.601 17.8384 15.601 17.4334Z" fill="#0F1111"/>
<path d="M13 7L13 11" stroke="#0F1111" strokeLinecap="round"/>
<path d="M11 9H15" stroke="#0F1111" strokeLinecap="round"/>
</svg>
