<svg width="55" height="16" viewBox="0 0 55 16" fill="none" xmlns="http://www.w3.org/2000/svg">
<path d="M5.33333 12.6667C6.06971 12.6667 6.66667 12.0697 6.66667 11.3333C6.66667 10.5969 6.06971 10 5.33333 10C4.59695 10 4 10.5969 4 11.3333C4 12.0697 4.59695 12.6667 5.33333 12.6667Z" stroke="#0066FF" strokeWidth="1.2" stroke-miterlimit="1.5" stroke-linecap="round" stroke-linejoin="round"/>
<path d="M11.9993 12.6667C12.7357 12.6667 13.3327 12.0697 13.3327 11.3333C13.3327 10.5969 12.7357 10 11.9993 10C11.2629 10 10.666 10.5969 10.666 11.3333C10.666 12.0697 11.2629 12.6667 11.9993 12.6667Z" stroke="#0066FF" strokeWidth="1.2" stroke-miterlimit="1.5" stroke-linecap="round" stroke-linejoin="round"/>
<path d="M6.69935 11.3333H9.99935V4.4C9.99935 4.17909 9.82028 4 9.59935 4H0.666016" stroke="#0066FF" strokeWidth="1.2" stroke-linecap="round"/>
<path d="M3.76667 11.3327H2.4C2.17909 11.3327 2 11.1536 2 10.9327V7.66602" stroke="#0066FF" strokeWidth="1.2" stroke-linecap="round"/>
<path d="M1.33398 6H4.00065" stroke="#0066FF" strokeWidth="1.2" stroke-linecap="round" stroke-linejoin="round"/>
<path d="M10 6H13.7401C13.8981 6 14.0414 6.09309 14.1056 6.23755L15.2989 8.9224C15.3216 8.9736 15.3333 9.02893 15.3333 9.08487V10.9333C15.3333 11.1543 15.1543 11.3333 14.9333 11.3333H13.6667" stroke="#0066FF" strokeWidth="1.2" stroke-linecap="round"/>
<path d="M10 11.334H10.6667" stroke="#0066FF" strokeWidth="1.2" stroke-linecap="round"/>
<path d="M24.48 6.78V5.14H20.69V6.78H24.48ZM25.77 4.1V7.82H19.39V4.1H25.77ZM26.77 8.8V9.85H23.23V12.86H21.91V9.85H18.43V8.8H26.77ZM31.0392 9.36V10.77H32.6492V9.36H31.0392ZM33.9492 10.77H35.9692V11.85H27.6192V10.77H29.7392V9.36H28.5892V6.27H33.7292V5.29H28.5792V4.24H35.0292V7.3H29.8992V8.31H35.2392V9.36H33.9492V10.77ZM39.5084 9.63V7.57H38.3284V9.63H39.5084ZM39.5084 6.54V4.46H40.7184V10.68H37.0884V4.46H38.3284V6.54H39.5084ZM43.4784 3.64H44.7284V12.85H43.4784V8.22H42.7084V12.45H41.4784V3.79H42.7084V7.16H43.4784V3.64ZM53.8977 6.43L53.4177 7.46C51.8677 7.23 50.7477 6.59 50.1677 5.68C49.5877 6.58 48.4677 7.23 46.9277 7.46L46.4477 6.43C48.5077 6.18 49.4977 5.13 49.4977 4.09V3.82H50.8477V4.09C50.8477 5.16 51.8177 6.18 53.8977 6.43ZM50.1677 11.88C51.4077 11.88 52.0277 11.68 52.0277 11.23C52.0277 10.77 51.4077 10.58 50.1677 10.58C48.9277 10.58 48.3077 10.77 48.3077 11.23C48.3077 11.68 48.9277 11.88 50.1677 11.88ZM50.1677 9.59C52.1677 9.59 53.3677 10.18 53.3677 11.23C53.3677 12.28 52.1677 12.86 50.1677 12.86C48.1677 12.86 46.9777 12.28 46.9777 11.23C46.9777 10.18 48.1677 9.59 50.1677 9.59ZM50.8377 8.04H54.3477V9.09H46.0277V8.04H49.5177V6.92H50.8377V8.04Z" fill="#0066FF"/>
</svg>
