<svg width="80" height="25" viewBox="0 0 80 25" fill="none" xmlns="http://www.w3.org/2000/svg">
<g id="img_footer_logo" clip-path="url(#clip0_1741_19860)">
<path id="path8" d="M49.6195 19.2497C44.9761 22.6516 38.2458 24.4666 32.4512 24.4666C24.3261 24.4666 17.0115 21.4796 11.4777 16.5116C11.0429 16.121 11.4325 15.5886 11.9542 15.8928C17.9263 19.3465 25.3105 21.4243 32.9381 21.4243C38.0824 21.4243 43.7414 20.3664 48.9448 18.1711C49.7308 17.8392 50.3882 18.6827 49.6195 19.2497Z" fill="#FF9900"/>
<path id="path10" d="M51.5497 17.0544C50.9584 16.3008 47.6263 16.6984 46.1307 16.8747C45.6751 16.93 45.6055 16.5359 46.0159 16.2524C48.6698 14.3959 53.0245 14.9317 53.5323 15.554C54.0401 16.1798 53.4001 20.5185 50.9063 22.5894C50.5237 22.9074 50.1584 22.738 50.3289 22.3163C50.8889 20.9265 52.1445 17.8116 51.5497 17.0544Z" fill="#FF9900"/>
<path id="path12" d="M46.2351 3.14575V1.34111C46.2351 1.068 46.4438 0.884766 46.6942 0.884766H54.8227C55.0836 0.884766 55.2923 1.07145 55.2923 1.34111V2.88646C55.2888 3.14575 55.0697 3.48455 54.6801 4.02041L50.468 9.99786C52.0332 9.95983 53.6853 10.1915 55.1044 10.9866C55.4244 11.1664 55.5114 11.4291 55.5357 11.6884V13.6141C55.5357 13.8768 55.2436 14.1845 54.9375 14.0255C52.4367 12.7221 49.115 12.5804 46.3498 14.0393C46.0681 14.1914 45.7725 13.8872 45.7725 13.6244V11.7956C45.7725 11.5017 45.7759 11.0004 46.0716 10.5545L50.9515 3.59864H46.7046C46.4438 3.59864 46.2351 3.41541 46.2351 3.14575Z" fill="white"/>
<path id="path14" d="M16.5837 14.4069H14.1107C13.8742 14.3896 13.6863 14.2133 13.6689 13.9886V1.37339C13.6689 1.12102 13.8811 0.920499 14.1455 0.920499H16.4515C16.6915 0.930864 16.8828 1.1141 16.9002 1.34227V2.99134H16.9454C17.5471 1.39759 18.6775 0.654297 20.201 0.654297C21.7488 0.654297 22.7157 1.39759 23.4113 2.99134C24.0096 1.39759 25.3696 0.654297 26.8269 0.654297C27.8634 0.654297 28.9973 1.07953 29.6895 2.03371C30.4721 3.09506 30.3121 4.63695 30.3121 5.98871L30.3086 13.9506C30.3086 14.2029 30.0964 14.4069 29.8321 14.4069H27.3626C27.1156 14.3896 26.9174 14.1926 26.9174 13.9506V7.2644C26.9174 6.732 26.9661 5.40444 26.8478 4.8997C26.6635 4.05269 26.1104 3.81415 25.3939 3.81415C24.7957 3.81415 24.1696 4.21172 23.9157 4.84784C23.6618 5.48396 23.6861 6.54876 23.6861 7.2644V13.9506C23.6861 14.2029 23.474 14.4069 23.2096 14.4069H20.7401C20.4897 14.3896 20.2949 14.1926 20.2949 13.9506L20.2914 7.2644C20.2914 5.85733 20.5245 3.78649 18.768 3.78649C16.9906 3.78649 17.0602 5.80547 17.0602 7.2644V13.9506C17.0602 14.2029 16.848 14.4069 16.5837 14.4069Z" fill="white"/>
<path id="path16" d="M62.2904 0.654297C65.9599 0.654297 67.946 3.78649 67.946 7.76915C67.946 11.617 65.7512 14.6696 62.2904 14.6696C58.687 14.6696 56.7253 11.5375 56.7253 7.63432C56.7253 3.70697 58.7114 0.654297 62.2904 0.654297ZM62.3113 3.22989C60.4887 3.22989 60.374 5.6983 60.374 7.23674C60.374 8.77864 60.3496 12.0699 62.2904 12.0699C64.2069 12.0699 64.2974 9.41476 64.2974 7.7968C64.2974 6.732 64.2521 5.45976 63.9287 4.45027C63.6504 3.57215 63.0974 3.22989 62.3113 3.22989Z" fill="white"/>
<path id="path18" d="M72.7042 14.4069H70.2417C69.9947 14.3896 69.7964 14.1926 69.7964 13.9506L69.793 1.3319C69.8138 1.10027 70.019 0.920499 70.2695 0.920499H72.5616C72.7773 0.930864 72.9546 1.07607 73.0033 1.27313V3.20223H73.0485C73.7407 1.4771 74.7111 0.654297 76.4189 0.654297C77.5285 0.654297 78.6102 1.05187 79.3058 2.14088C79.9528 3.15037 79.9528 4.84784 79.9528 6.06822V14.0093C79.9249 14.2306 79.7197 14.4069 79.4762 14.4069H76.9963C76.7702 14.3896 76.5824 14.2237 76.558 14.0093V7.15723C76.558 5.77782 76.718 3.75883 75.0103 3.75883C74.4085 3.75883 73.8555 4.15986 73.5807 4.76832C73.2329 5.53927 73.1877 6.30677 73.1877 7.15723V13.9506C73.1842 14.2029 72.9686 14.4069 72.7042 14.4069Z" fill="white"/>
<path id="use28" d="M39.7553 8.38097V7.84857C37.9675 7.84857 36.0789 8.22886 36.0789 10.3239C36.0789 11.3852 36.6319 12.1043 37.5814 12.1043C38.2771 12.1043 38.8997 11.6791 39.2927 10.9877C39.7797 10.1372 39.7553 9.3386 39.7553 8.38097ZM42.2492 14.3722C42.0857 14.5174 41.8492 14.5278 41.6648 14.431C40.844 13.7534 40.6979 13.4388 40.2457 12.7923C38.8892 14.1683 37.9293 14.5797 36.1693 14.5797C34.0893 14.5797 32.4685 13.304 32.4685 10.7491C32.4685 8.75434 33.5572 7.39568 35.105 6.7319C36.4476 6.14418 38.3223 6.04047 39.7553 5.87798V5.55992C39.7553 4.97566 39.8005 4.28423 39.4562 3.77948C39.1536 3.32659 38.5762 3.13991 38.0684 3.13991C37.1258 3.13991 36.2841 3.62045 36.0789 4.61612C36.0371 4.83738 35.8737 5.05518 35.651 5.06555L33.2511 4.80972C33.0494 4.76478 32.8268 4.60229 32.8824 4.2946C33.4354 1.40441 36.0615 0.533203 38.4127 0.533203C39.6162 0.533203 41.1883 0.851262 42.1379 1.75704C43.3413 2.8737 43.2265 4.36374 43.2265 5.98515V9.81569C43.2265 10.9669 43.7065 11.4717 44.1587 12.094C44.3187 12.3152 44.3535 12.5814 44.1517 12.7474C43.6474 13.1657 42.75 13.9436 42.2561 14.3792L42.2492 14.3722Z" fill="white"/>
<path id="path30" d="M7.33514 8.38097V7.84857C5.54735 7.84857 3.6587 8.22886 3.6587 10.3239C3.6587 11.3852 4.21173 12.1043 5.16128 12.1043C5.85691 12.1043 6.47951 11.6791 6.87255 10.9877C7.35949 10.1372 7.33514 9.3386 7.33514 8.38097ZM9.82901 14.3722C9.66553 14.5174 9.42901 14.5278 9.24467 14.431C8.42382 13.7534 8.27773 13.4388 7.82557 12.7923C6.46907 14.1683 5.5091 14.5797 3.74913 14.5797C1.66917 14.5797 0.0483398 13.304 0.0483398 10.7491C0.0483398 8.75434 1.13701 7.39568 2.68481 6.7319C4.02739 6.14418 5.90213 6.04047 7.33514 5.87798V5.55992C7.33514 4.97566 7.38036 4.28423 7.03602 3.77948C6.73342 3.32659 6.15604 3.13991 5.64822 3.13991C4.70563 3.13991 3.86391 3.62045 3.6587 4.61612C3.61696 4.83738 3.45349 5.05518 3.23088 5.06555L0.830932 4.80972C0.629197 4.76478 0.406593 4.60229 0.462244 4.2946C1.01528 1.40441 3.64131 0.533203 5.99256 0.533203C7.19601 0.533203 8.76816 0.851262 9.7177 1.75704C10.9212 2.8737 10.8064 4.36374 10.8064 5.98515V9.81569C10.8064 10.9669 11.2864 11.4717 11.7385 12.094C11.8985 12.3152 11.9333 12.5814 11.7316 12.7474C11.2272 13.1657 10.3299 13.9436 9.83596 14.3792L9.82901 14.3722Z" fill="white"/>
</g>
<defs>
<clipPath id="clip0_1741_19860">
<rect width="80" height="24" fill="white" transform="translate(0 0.5)"/>
</clipPath>
</defs>
</svg>
