<svg width="42" height="42" viewBox="0 0 42 42" fill="none" xmlns="http://www.w3.org/2000/svg">
<path fill-rule="evenodd" clip-rule="evenodd" d="M9.17434 5.14961C9.04878 4.28889 8.24926 3.69292 7.38853 3.81845C7.12687 3.85662 6.88967 3.95707 6.68977 4.10259C6.58849 4.07754 6.48258 4.06425 6.37356 4.06425L4.1543 4.06425C3.42942 4.06425 2.8418 4.65188 2.8418 5.37675C2.8418 6.10162 3.42942 6.68925 4.1543 6.68925L6.22662 6.68925C6.246 6.80754 6.2666 6.9314 6.28817 7.05857C6.41129 7.78431 6.58408 8.72916 6.75402 9.32537L10.1935 25.2318C10.2878 25.6679 10.5574 26.0289 10.9187 26.2473V30.9816C10.6033 31.6068 10.4255 32.3135 10.4255 33.0626C10.4255 35.6309 12.5152 37.7003 15.0774 37.7003C17.6397 37.7003 19.7293 35.6309 19.7293 33.0626C19.7293 32.4428 19.6076 31.8521 19.387 31.3125H27.7679C27.5472 31.8521 27.4255 32.4428 27.4255 33.0626C27.4255 35.6309 29.5151 37.7003 32.0774 37.7003C34.6397 37.7003 36.7293 35.6309 36.7293 33.0626C36.7293 30.4944 34.6397 28.425 32.0774 28.425C31.5358 28.425 31.0154 28.5174 30.5313 28.6875H17.0005C16.9012 28.6875 16.8045 28.6985 16.7115 28.7194C16.2027 28.529 15.6519 28.425 15.0774 28.425C14.5405 28.425 14.0243 28.5159 13.5437 28.6832V26.474H34.1648C34.9063 26.474 35.5475 25.9567 35.7042 25.2318L39.1552 9.27166C39.2559 8.80627 39.1406 8.32033 38.8416 7.94976C38.5426 7.5792 38.092 7.36379 37.6158 7.36379H9.54234C9.49224 7.0987 9.44182 6.81477 9.3938 6.53172C9.33015 6.15651 9.2751 5.80983 9.23594 5.55668C9.21638 5.43029 9.20086 5.32768 9.19028 5.25704L9.17825 5.1762L9.17524 5.15575L9.17452 5.15086L9.17437 5.1498L9.17435 5.14966L9.17434 5.14961ZM13.0037 23.324L10.2338 10.5138H35.6639L32.8939 23.324H13.0037ZM13.5755 33.0626C13.5755 32.2479 14.241 31.575 15.0774 31.575C15.9138 31.575 16.5793 32.2479 16.5793 33.0626C16.5793 33.8773 15.9138 34.5503 15.0774 34.5503C14.241 34.5503 13.5755 33.8773 13.5755 33.0626ZM30.5755 33.0626C30.5755 32.2479 31.241 31.575 32.0774 31.575C32.9139 31.575 33.5793 32.2479 33.5793 33.0626C33.5793 33.8774 32.9139 34.5503 32.0774 34.5503C31.241 34.5503 30.5755 33.8774 30.5755 33.0626Z" fill="white"/>
</svg>
