<svg width="20" height="20" viewBox="0 0 20 20" fill="none" xmlns="http://www.w3.org/2000/svg">
<rect width="20" height="20" rx="10" fill="#FF9900"/>
<path d="M9.77238 9.248C9.81238 9.24 9.85238 9.236 9.89238 9.236C9.93238 9.236 9.97238 9.236 10.0124 9.236C10.8044 9.236 11.4324 9.452 11.8964 9.884C12.3604 10.308 12.5924 10.88 12.5924 11.6C12.5924 12.384 12.3084 13.012 11.7404 13.484C11.1804 13.948 10.4244 14.18 9.47238 14.18C8.72038 14.18 7.97638 14.02 7.24038 13.7V12.74C8.11238 13.028 8.85638 13.172 9.47238 13.172C10.0804 13.172 10.5484 13.036 10.8764 12.764C11.2044 12.492 11.3684 12.104 11.3684 11.6C11.3684 10.632 10.7564 10.148 9.53238 10.148C9.14838 10.148 8.76838 10.168 8.39238 10.208V9.416L10.9124 6.668H7.36038V5.684H12.2444V6.632L9.77238 9.248Z" fill="white"/>
</svg>
