<svg width="87" height="50" viewBox="0 0 87 50" fill="none" xmlns="http://www.w3.org/2000/svg">
<g clip-path="url(#clip0_1089_14187)">
<path d="M15.4704 29.1299C16.4704 29.1299 17.2904 29.9499 17.2904 30.9499C17.2904 31.9499 16.4704 32.7699 15.4704 32.7699C14.4704 32.7699 13.6504 31.9499 13.6504 30.9499C13.6504 29.9499 14.4704 29.1299 15.4704 29.1299ZM15.4704 27.6299C13.6404 27.6299 12.1504 29.1199 12.1504 30.9499C12.1504 32.7799 13.6404 34.2699 15.4704 34.2699C17.3004 34.2699 18.7904 32.7799 18.7904 30.9499C18.7904 29.1199 17.3004 27.6299 15.4704 27.6299Z" fill="white"/>
<path d="M15.4703 26C17.6903 26 19.7003 27.6 20.2603 29.8C20.3603 30.19 20.4103 30.58 20.4203 30.97C20.4203 31.47 20.3503 31.95 20.2003 32.38C19.8403 33.39 19.0203 34.31 18.2303 35.19L15.4703 38.29L14.8603 37.61L13.1303 35.68C12.1103 34.54 10.9503 33.25 10.6103 31.83C10.4003 30.96 10.5003 29.99 10.8703 29.1C11.6003 27.35 13.4103 26.08 15.2803 26C15.3403 26 15.4103 26 15.4703 26ZM15.4703 24.5C15.3903 24.5 15.3003 24.5 15.2203 24.5C12.7503 24.61 10.4303 26.25 9.48033 28.53C9.00033 29.67 8.86033 30.97 9.15033 32.18C9.57033 33.93 10.8103 35.35 12.0103 36.68C13.1603 37.96 14.3203 39.25 15.4703 40.53C16.7603 39.08 18.0503 37.63 19.3503 36.18C20.2503 35.18 21.1603 34.14 21.6103 32.87C21.8303 32.25 21.9203 31.59 21.9103 30.94C21.9103 30.43 21.8303 29.92 21.7103 29.43C21.0003 26.61 18.3903 24.5 15.4703 24.5Z" fill="white"/>
</g>
<path d="M30.212 17.896V15.052H27.956V17.896H30.212ZM30.212 14.272V11.644H31.136V18.688H27.02V11.644H27.956V14.272H30.212ZM34.844 10.624H35.78V21.388H34.844V15.688H33.392V20.86H32.468V10.864H33.392V14.884H34.844V10.624ZM46.8191 14.164L46.4471 14.944C44.8031 14.668 43.2191 13.816 42.5351 12.592C41.8631 13.816 40.2791 14.668 38.6351 14.944L38.2631 14.164C40.1831 13.9 42.0311 12.7 42.0311 11.272V10.792H43.0391V11.272C43.0391 12.7 44.8991 13.9 46.8191 14.164ZM42.5351 20.62C44.2391 20.62 45.2231 20.224 45.2231 19.516C45.2231 18.808 44.2391 18.412 42.5351 18.412C40.8311 18.412 39.8471 18.808 39.8471 19.516C39.8471 20.224 40.8311 20.62 42.5351 20.62ZM42.5351 17.656C44.8391 17.656 46.2191 18.316 46.2191 19.516C46.2191 20.716 44.8391 21.376 42.5351 21.376C40.2311 21.376 38.8511 20.716 38.8511 19.516C38.8511 18.316 40.2311 17.656 42.5351 17.656ZM43.0271 15.964H47.4071V16.756H37.6751V15.964H42.0431V14.38H43.0271V15.964ZM52.4341 13.276V14.104C52.4341 15.892 53.6101 17.644 55.1941 18.352L54.6541 19.108C53.4301 18.544 52.4341 17.38 51.9541 15.964C51.4981 17.464 50.5021 18.712 49.2781 19.312L48.7261 18.556C50.3101 17.8 51.4621 15.964 51.4621 14.104V13.276H49.0261V12.484H51.4501V10.816H52.4341V12.484H54.8221V13.276H52.4341ZM56.5981 10.612H57.5821V21.412H56.5981V15.748H54.2701V14.944H56.5981V10.612Z" fill="#CCCCCC"/>
<path d="M29.0282 28.792V34.28C30.2322 34.252 31.3242 34.182 32.5562 33.958L32.6962 35.456C31.1282 35.75 29.7562 35.806 28.1042 35.806H27.2082V27.294H31.9822V28.792H29.0282ZM36.1542 25.796H37.9042V38.704H36.1542V32.25H34.9922V38.102H33.2702V26.048H34.9922V30.766H36.1542V25.796ZM47.3251 27.168L47.3111 28.61H39.7231V27.168H42.5791V25.796H44.4411V27.168H47.3251ZM42.1171 31.55C42.1171 32.264 42.6911 32.642 43.5171 32.642C44.3291 32.642 44.9171 32.264 44.9171 31.55C44.9171 30.85 44.3291 30.472 43.5171 30.472C42.6911 30.472 42.1171 30.85 42.1171 31.55ZM46.6811 31.55C46.6811 33.034 45.3651 34.042 43.5171 34.042C41.6691 34.042 40.3531 33.034 40.3531 31.55C40.3531 30.094 41.6691 29.072 43.5171 29.072C45.3651 29.072 46.6811 30.094 46.6811 31.55ZM43.4051 34.742V37.01H50.3351V38.48H41.5571V34.742H43.4051ZM49.8731 29.744H51.5811V31.27H49.8731V35.456H48.0251V25.81H49.8731V29.744ZM63.312 25.81V34.98H61.45V25.81H63.312ZM57.698 31.606V28.288H55.066V31.606H57.698ZM59.504 26.832V33.062H53.246V26.832H59.504ZM56.578 36.954H63.634V38.438H54.73V34.168H56.578V36.954ZM77.1569 32.278H72.2289V34.098H75.8129V38.704H73.9509V35.554H66.6569V34.098H70.3809V32.278H65.4809V30.808H73.6849C73.9229 29.632 73.9649 28.694 73.9649 27.84H66.9229V26.356H75.7849V27.392C75.7849 28.358 75.7849 29.436 75.5329 30.808H77.1569V32.278Z" fill="white"/>
<defs>
<clipPath id="clip0_1089_14187">
<rect width="12.92" height="16.04" fill="white" transform="translate(9 24.5)"/>
</clipPath>
</defs>
</svg>
