<svg width="14" height="14" viewBox="0 0 14 14" fill="none" xmlns="http://www.w3.org/2000/svg">
<path d="M6.56794 0.741794C6.76081 0.41066 7.23919 0.41066 7.43206 0.741794L9.15208 3.69489C9.22273 3.81619 9.34112 3.90221 9.47832 3.93192L12.8184 4.6552C13.1929 4.7363 13.3407 5.19126 13.0854 5.47702L10.8084 8.02541C10.7148 8.13009 10.6696 8.26927 10.6838 8.40893L11.028 11.809C11.0666 12.1903 10.6796 12.4715 10.3289 12.317L7.20162 10.9388C7.07317 10.8822 6.92683 10.8822 6.79838 10.9388L3.67106 12.317C3.32039 12.4715 2.93338 12.1903 2.97198 11.809L3.31624 8.40893C3.33038 8.26927 3.28516 8.13009 3.19163 8.02541L0.91458 5.47702C0.659252 5.19126 0.807079 4.7363 1.1816 4.6552L4.52168 3.93192C4.65888 3.90221 4.77727 3.81619 4.84792 3.69489L6.56794 0.741794Z" fill="#FF9900"/>
</svg>
