<svg width="59" height="14" viewBox="0 0 59 14" fill="none" xmlns="http://www.w3.org/2000/svg">
<path d="M6.56794 0.741794C6.76081 0.41066 7.23919 0.41066 7.43206 0.741794L9.15208 3.69489C9.22273 3.81619 9.34112 3.90221 9.47832 3.93192L12.8184 4.6552C13.1929 4.7363 13.3407 5.19126 13.0854 5.47702L10.8084 8.02541C10.7148 8.13009 10.6696 8.26927 10.6838 8.40893L11.028 11.809C11.0666 12.1903 10.6796 12.4715 10.3289 12.317L7.20162 10.9388C7.07317 10.8822 6.92683 10.8822 6.79838 10.9388L3.67106 12.317C3.32039 12.4715 2.93338 12.1903 2.97198 11.809L3.31624 8.40893C3.33038 8.26927 3.28516 8.13009 3.19163 8.02541L0.91458 5.47702C0.659252 5.19126 0.807079 4.7363 1.1816 4.6552L4.52168 3.93192C4.65888 3.90221 4.77727 3.81619 4.84792 3.69489L6.56794 0.741794Z" fill="#FF9900"/>
<path d="M21.62 11V9.51H18.3V8.74L21.59 4.07H22.55V8.7H23.52V9.51H22.55V11H21.62ZM21.62 8.7V5.38L19.3 8.7H21.62ZM25.0994 11.1C24.906 11.1 24.7494 11.04 24.6294 10.92C24.5094 10.7933 24.4494 10.6333 24.4494 10.44C24.4494 10.2467 24.5094 10.09 24.6294 9.97C24.7494 9.84333 24.906 9.78 25.0994 9.78C25.2927 9.78 25.4494 9.84333 25.5694 9.97C25.6894 10.09 25.7494 10.2467 25.7494 10.44C25.7494 10.6333 25.6894 10.7933 25.5694 10.92C25.4494 11.04 25.2927 11.1 25.0994 11.1ZM27.0198 9.95C27.7598 10.19 28.3932 10.31 28.9198 10.31C29.4265 10.31 29.8132 10.1967 30.0798 9.97C30.3532 9.73667 30.4898 9.40333 30.4898 8.97C30.4898 8.49667 30.3632 8.15333 30.1098 7.94C29.8565 7.72667 29.4432 7.62 28.8698 7.62C28.4565 7.62 27.9398 7.65333 27.3198 7.72V7.06L27.5098 4.07H31.1598V4.89H28.3498L28.2198 6.92C28.5865 6.85333 28.9165 6.82 29.2098 6.82C29.9298 6.82 30.4932 7.01 30.8998 7.39C31.3065 7.77 31.5098 8.29333 31.5098 8.96C31.5098 9.61333 31.2732 10.1433 30.7998 10.55C30.3265 10.95 29.7032 11.15 28.9298 11.15C28.2498 11.15 27.6132 11.0167 27.0198 10.75V9.95Z" fill="#FF9900"/>
<path d="M37 4L37 10" stroke="#CCCCCC" stroke-linecap="round"/>
<path d="M43.96 11V5.06L42.03 5.81V5.01L44.03 4.07H44.96V11H43.96ZM51.9694 5.76C51.9694 6.12667 51.866 6.46 51.6594 6.76C51.4594 7.06 51.1794 7.3 50.8194 7.48C51.3194 7.70667 51.6794 7.95333 51.8994 8.22C52.1194 8.48667 52.2294 8.81333 52.2294 9.2C52.2294 9.8 52.006 10.2767 51.5594 10.63C51.1194 10.9767 50.5194 11.15 49.7594 11.15C49.026 11.15 48.4394 10.9833 47.9994 10.65C47.566 10.3167 47.3494 9.86333 47.3494 9.29C47.3494 8.88333 47.4627 8.51667 47.6894 8.19C47.9227 7.86333 48.2594 7.6 48.6994 7.4C48.3327 7.21333 48.0594 6.99333 47.8794 6.74C47.706 6.48 47.6194 6.17333 47.6194 5.82C47.6194 5.24667 47.816 4.78667 48.2094 4.44C48.6094 4.09333 49.136 3.92 49.7894 3.92C50.436 3.92 50.9594 4.09 51.3594 4.43C51.766 4.77 51.9694 5.21333 51.9694 5.76ZM49.3194 7.68C48.646 8.06 48.3094 8.54 48.3094 9.12C48.3094 9.51333 48.436 9.82 48.6894 10.04C48.9494 10.2533 49.316 10.36 49.7894 10.36C50.256 10.36 50.6194 10.26 50.8794 10.06C51.1394 9.85333 51.2694 9.56333 51.2694 9.19C51.2694 8.91667 51.1727 8.69333 50.9794 8.52C50.7927 8.34 50.4427 8.14333 49.9294 7.93L49.3194 7.68ZM48.5594 5.77C48.5594 6.04333 48.6494 6.28 48.8294 6.48C49.0094 6.67333 49.2927 6.85 49.6794 7.01L50.1994 7.22C50.7527 6.85333 51.0294 6.4 51.0294 5.86C51.0294 5.48 50.9194 5.18667 50.6994 4.98C50.4794 4.77333 50.1727 4.67 49.7794 4.67C49.3927 4.67 49.0927 4.76667 48.8794 4.96C48.666 5.15333 48.5594 5.42333 48.5594 5.77ZM53.3888 11V10.22C54.3488 9.24667 55.0488 8.50333 55.4888 7.99C55.9354 7.47 56.2421 7.05333 56.4088 6.74C56.5754 6.42667 56.6588 6.13 56.6588 5.85C56.6588 5.51667 56.5554 5.25667 56.3488 5.07C56.1488 4.87667 55.8754 4.78 55.5288 4.78C54.9354 4.78 54.2854 5.03 53.5788 5.53V4.68C53.9054 4.42 54.2354 4.23 54.5688 4.11C54.9088 3.98333 55.2788 3.92 55.6788 3.92C56.2854 3.92 56.7721 4.09 57.1388 4.43C57.5121 4.77 57.6988 5.22 57.6988 5.78C57.6988 6.15333 57.5988 6.53333 57.3988 6.92C57.1988 7.3 56.8721 7.74333 56.4188 8.25C55.9721 8.75667 55.3454 9.39667 54.5388 10.17H58.0188V11H53.3888Z" fill="#FF9900"/>
</svg>
