<svg width="23" height="23" viewBox="0 0 23 23" fill="none" xmlns="http://www.w3.org/2000/svg">
<circle cx="11.5" cy="11.5" r="11.5" fill="#CCCCCC"/>
<path fill-rule="evenodd" clip-rule="evenodd" d="M4.45509 6L3.5 6C3.22386 6 3 5.77614 3 5.5C3 5.22386 3.22386 5 3.5 5H4.9707C4.97568 5 4.98063 5.00007 4.98557 5.00022C5.28545 4.99215 5.55056 5.2097 5.59473 5.51386L5.59473 5.51387L5.59473 5.51388L5.59474 5.51396L5.59481 5.51444L5.59513 5.51661L5.59644 5.52559L5.60168 5.56097C5.60629 5.59184 5.61303 5.63665 5.62153 5.69183C5.63855 5.80234 5.66247 5.95371 5.69014 6.11759C5.74787 6.45945 5.81463 6.81066 5.86489 6.98048C5.86919 6.995 5.87293 7.00969 5.87612 7.0245L7.26962 13.4991H16.0209L17.4144 7.0245C17.4841 6.70054 17.8032 6.49445 18.1272 6.56417C18.4512 6.6339 18.6572 6.95303 18.5875 7.27699L17.0921 14.2253C17.0326 14.5017 16.7882 14.6991 16.5055 14.6991H7.50095V15.6884C7.75329 15.5677 8.03589 15.5001 8.33429 15.5001C8.55166 15.5001 8.76065 15.536 8.95567 15.6021C8.97058 15.6008 8.98569 15.6001 9.00095 15.6001H14.7189C14.9122 15.5352 15.1191 15.5001 15.3343 15.5001C16.4021 15.5001 17.2676 16.3656 17.2676 17.4334C17.2676 18.5012 16.4021 19.3667 15.3343 19.3667C14.2665 19.3667 13.401 18.5012 13.401 17.4334C13.401 17.135 13.4686 16.8524 13.5893 16.6001H10.0793C10.2 16.8524 10.2676 17.135 10.2676 17.4334C10.2676 18.5012 9.40203 19.3667 8.33429 19.3667C7.26654 19.3667 6.40095 18.5012 6.40095 17.4334C6.40095 17.2183 6.4361 17.0113 6.50095 16.818V14.6276C6.35007 14.5465 6.23647 14.4021 6.19844 14.2253L4.70741 7.29757C4.63515 7.04396 4.56062 6.63559 4.50689 6.31739C4.48748 6.20243 4.46989 6.09369 4.45509 6ZM7.60095 17.4334C7.60095 17.0284 7.92927 16.7001 8.33429 16.7001C8.7393 16.7001 9.06762 17.0284 9.06762 17.4334C9.06762 17.8384 8.7393 18.1667 8.33429 18.1667C7.92927 18.1667 7.60095 17.8384 7.60095 17.4334ZM14.601 17.4334C14.601 17.0284 14.9293 16.7001 15.3343 16.7001C15.7393 16.7001 16.0676 17.0284 16.0676 17.4334C16.0676 17.8384 15.7393 18.1667 15.3343 18.1667C14.9293 18.1667 14.601 17.8384 14.601 17.4334Z" fill="#0F1111"/>
<path d="M12 7L12 11" stroke="#0F1111" stroke-linecap="round"/>
<path d="M10 9H14" stroke="#0F1111" stroke-linecap="round"/>
</svg>
