<svg width="142" height="33" viewBox="0 0 142 33" fill="none" xmlns="http://www.w3.org/2000/svg">
<rect x="0.5" y="0.5" width="141" height="32" rx="2.5" stroke="#CCCCCC"/>
<path d="M10.002 22L9.176 17.366H8.14V16.47H9.022L8.252 12.004H9.372L10.086 16.47H11.248L12.06 12.004H13.348L14.188 16.47H15.336L16.022 12.004H17.128L16.386 16.47H17.24V17.366H16.232L15.476 22H14.216L13.376 17.366H12.074L11.248 22H10.002ZM10.632 20.488L11.08 17.366H10.24L10.632 20.488ZM14.818 20.544L15.21 17.366H14.356L14.818 20.544ZM12.228 16.47H13.208L12.704 13.32L12.228 16.47Z" fill="white"/>
<path d="M23.176 22V12.298H24.604V16.638L28.594 12.298H30.274L25.962 16.932L30.652 22H28.902L24.604 17.366V22H23.176ZM31.8166 22V12.298H35.3586C36.3013 12.298 37.0526 12.5593 37.6126 13.082C38.1726 13.5953 38.4526 14.2907 38.4526 15.168C38.4526 15.812 38.2753 16.372 37.9206 16.848C37.5753 17.3147 37.0853 17.6553 36.4506 17.87L39.0266 22H37.4726L35.0926 18.094H33.2026V22H31.8166ZM33.2026 16.96H35.1766C35.774 16.96 36.2266 16.8107 36.5346 16.512C36.852 16.2133 37.0106 15.77 37.0106 15.182C37.0106 14.6033 36.8613 14.1693 36.5626 13.88C36.264 13.5813 35.8206 13.432 35.2326 13.432H33.2026V16.96ZM47.5706 22L45.7366 14.398L43.8886 22H42.2926L39.4646 12.298H41.0186L43.1046 20.432L44.9666 12.578H46.5346L48.3966 20.446L50.4966 12.298H51.9946L49.1666 22H47.5706ZM56.5366 18.962V17.786H60.7086V18.962H56.5366ZM67.3357 12.942V18.99C69.0157 18.976 70.2057 18.906 71.5777 18.612L71.6757 19.564C70.1777 19.886 68.9037 19.942 67.0277 19.942H66.2017V12.004H70.8777V12.942H67.3357ZM75.3157 10.478H76.4217V23.036H75.3157V16.456H73.5377V22.406H72.4597V10.758H73.5377V15.518H75.3157V10.478ZM86.0806 12.018V12.942H78.6746V12.018H81.7966V10.478H82.9446V12.018H86.0806ZM80.4666 15.966C80.4666 16.848 81.2366 17.408 82.3706 17.408C83.5046 17.408 84.2886 16.848 84.2886 15.966C84.2886 15.098 83.5046 14.538 82.3706 14.538C81.2366 14.538 80.4666 15.098 80.4666 15.966ZM85.3806 15.966C85.3806 17.38 84.1486 18.304 82.3706 18.304C80.5926 18.304 79.3746 17.38 79.3746 15.966C79.3746 14.566 80.5926 13.642 82.3706 13.642C84.1486 13.642 85.3806 14.566 85.3806 15.966ZM81.7126 19.158V21.818H88.9366V22.756H80.5646V19.158H81.7126ZM88.3766 14.622H90.2246V15.588H88.3766V19.9H87.2286V10.478H88.3766V14.622ZM101.816 10.492V19.508H100.668V10.492H101.816ZM96.9155 16.484V12.494H93.2895V16.484H96.9155ZM98.0355 11.57V17.408H92.1695V11.57H98.0355ZM94.8855 21.692H102.194V22.616H93.7375V18.654H94.8855V21.692ZM115.786 16.498H110.648V18.794H114.386V23.022H113.238V19.718H105.594V18.794H109.5V16.498H104.39V15.56H112.846C113.182 14.048 113.182 12.942 113.182 12.004H105.846V11.08H114.316V11.99C114.316 12.928 114.316 14.076 114.008 15.56H115.786V16.498ZM127.513 17.898H130.061V10.478H131.209V20.04H130.061V18.752H127.513V17.898ZM124.951 11.836C123.761 11.836 122.949 12.368 122.949 13.166C122.949 13.978 123.761 14.51 124.951 14.51C126.141 14.51 126.953 13.978 126.953 13.166C126.953 12.368 126.141 11.836 124.951 11.836ZM124.951 15.364C123.117 15.364 121.857 14.51 121.857 13.166C121.857 11.85 123.117 10.982 124.951 10.982C126.785 10.982 128.045 11.85 128.045 13.166C128.045 14.51 126.785 15.364 124.951 15.364ZM124.503 19.592V17.17C123.257 17.226 122.053 17.24 121.017 17.24L120.863 16.288C123.187 16.288 126.295 16.26 128.955 15.924L129.053 16.75C127.947 16.918 126.785 17.044 125.651 17.114V19.592H124.503ZM123.803 21.818H131.531V22.756H122.655V19.102H123.803V21.818Z" fill="#CCCCCC"/>
</svg>
